<svg xmlns="http://www.w3.org/2000/svg" xmlns:xlink="http://www.w3.org/1999/xlink" width="153.691" height="106" viewBox="0 0 153.691 106"><defs><style>.a{clip-path:url(#a);}</style><clipPath id="a"><path d="M0-732H153.691v106H0Z" transform="translate(0 731.998)"/></clipPath></defs><g transform="translate(0 731.998)"><g transform="translate(0 -731.998)"><g class="a"><g transform="translate(10.576 20.661)"><path d="M-649.368-162.071a19.243,19.243,0,0,0-3.716,3.575,34.251,34.251,0,0,1-6.154,6.059,13.055,13.055,0,0,1-6.957,3c-.785.1-1.6.519-2.148-.562-.254-.5-.851-.2-1.267-.005-1.127.526-2.241,1.082-3.338,1.615-.3-.268-.182-.556-.184-.822-.012-1.651-.588-2-2.056-1.209-.45.242-.87.54-1.3.825-.961.644-1.916,1.3-3.121,2.114.15-.526.2-.7.248-.873.174-.675.879-1.423.014-2.011-.779-.53-1.267.315-1.787.688a31.761,31.761,0,0,1-4.742,3.283c.505-.9.847-1.438,1.12-2.01.459-.961,1.72-1.963.829-2.976-.823-.937-2.09-.062-3.13.247a45.188,45.188,0,0,0-4.611,2.192,28.375,28.375,0,0,1,4.613-7.495c.376-.407.824-.9.146-1.407-.574-.432-.907.02-1.269.415-2.015,2.2-4.013,4.409-6.08,6.555a31.346,31.346,0,0,1-4.913,4.125c-.767.524-1.111.369-1.289-.553-.247-1.287-.7-1.464-1.795-.739-1.01.666-1.962,1.418-2.958,2.106-.527.365-1.1,1.057-1.687.814-.668-.275-.294-1.148-.353-1.762-.113-1.166-.655-1.481-1.664-.86-.786.483-1.506,1.074-2.255,1.617l-3.25,2.065a4.8,4.8,0,0,1,.817-2.861c.856-1.6,1.832-3.137,2.727-4.716a17.5,17.5,0,0,0,2.286-4.766c.248-1.137-.316-1.608-1.405-1.206a9.685,9.685,0,0,0-1.614.823,40.477,40.477,0,0,0-7.18,5.537c-1.9,1.824-3.8,3.64-5.793,5.545.65-1.465,1.32-2.829,1.87-4.239,1.341-3.439,3.168-6.636,4.8-9.934.281-.569.919-1.287.309-1.9-.649-.657-1.308.082-1.88.37a56.71,56.71,0,0,0-6.594,3.944,191.727,191.727,0,0,0-22.76,18.926c-.36.339-.634.951-1.266.779q4.716-6.711,9.409-13.389c4.236-6.019,9.016-11.649,12.9-17.921a34.566,34.566,0,0,0,4.121-8.682c1.24-4.364.146-7.69-3.217-9.971a10.754,10.754,0,0,0-5.793-1.781c-3.6-.136-6.885,1.021-10.1,2.419a17.432,17.432,0,0,0-4.927,2.877c-.3.274-.551.62-.291.965.348.462.665,0,.919-.2a24.549,24.549,0,0,1,5.534-2.949,19.691,19.691,0,0,1,8.8-1.914c6.542.277,9.847,5.077,7.744,11.238a46,46,0,0,1-5.491,10.328c-3.567,5.413-7.733,10.391-11.439,15.7-5.331,7.642-10.548,15.372-16.911,22.229-.324.348-.714.734-.292,1.2s.865.095,1.242-.166a3.63,3.63,0,0,0,.72-.657c1.966-2.372,4.137-4.55,6.325-6.714,8.332-8.237,17.025-16.043,26.842-22.505a28.293,28.293,0,0,1,4.927-2.7c-.281.644-.436,1.021-.608,1.39-.94,2.027-2.158,3.91-2.994,6a99.558,99.558,0,0,1-5.6,11.861c-.265.471-.773,1-.051,1.43.669.4.962-.215,1.294-.678a68.706,68.706,0,0,1,11.966-12.662,19.55,19.55,0,0,1,5.172-3.3A26.3,26.3,0,0,1-712.2-151.8a31.422,31.422,0,0,0-4.2,8.783c-.122.493-.326,1,.17,1.419.539.458.945.086,1.359-.217q2.138-1.568,4.274-3.14l1.628-1.056c1,2.942,1.987,3.217,4.486,1.3.627-.481,1.247-.973,1.866-1.465.422-.335.693-.482,1.038.188.772,1.5,1.47,1.669,2.879.716a39.928,39.928,0,0,0,4.934-4.32c.4-.374.78-.759,1.17-1.139a21.2,21.2,0,0,1-1.245,3.357.993.993,0,0,0,.3,1.358c.458.305.869.065,1.252-.269.6-.52,1.2-1.029,1.84-1.5A14.573,14.573,0,0,1-685.5-150.2c-.645,1.313-1.218,2.373-1.688,3.477-.293.688-.506,1.543.13,2.1.718.628,1.4-.012,2-.422,1.23-.841,2.433-1.722,3.782-2.683-.031.525-.07.8-.059,1.073.022.513.027,1.04.608,1.3a1.3,1.3,0,0,0,1.4-.351c.444-.338.843-.737,1.295-1.064a13.991,13.991,0,0,1,3.186-2.151c.334,2.53,1.114,2.879,3.194,1.52.234-.153.462-.316.7-.46.739-.444,1.444-1.049,2.216.033.264.371.843.339,1.319.271a16.246,16.246,0,0,0,9.711-4.476,7.493,7.493,0,0,1,1.962-1.591c-.167,1.125-.316,2.072-.446,3.02a3.915,3.915,0,0,0,.368,2.445.719.719,0,0,0,.94.388c.382-.148.342-.46.275-.814a10.236,10.236,0,0,1,2.816-9.209c1.035-1.133,2.174-2.173,3.285-3.235.336-.321.855-.576.376-1.106-.391-.432-.844-.258-1.242.066" transform="translate(759.325 189.515)"/></g><g transform="translate(125.704 52.915)"><path d="M-40.042-26.159c-1.572,1.631-3.056,3.376-5.287,4.233-.251-2.132,2.029-4.849,4.943-5.948.462.215-.49.892.332,1.053.393.077.214.453.012.662m11.1.98c-.271-.652-.874-.221-1.342-.066-.432.143-.9.433-1.282-.042-.411-.517-.048-.979.241-1.39.615-.875,1.275-1.718,1.9-2.588.258-.36.41-.8.012-1.131-.448-.369-.884-.164-1.2.26-.522.712-1.022,1.44-1.527,2.164a12.117,12.117,0,0,1-5.972,4.3,27.727,27.727,0,0,1,1.123-2.989c.258-.688,1-1.529.169-2.145-.88-.65-1.135.672-1.923.925-.269-1.17-.833-1.852-2.083-1.509-2.313.635-5.716,4.589-5.972,6.944a1.788,1.788,0,0,0,.676,1.865c.642.418,1.237.108,1.824-.228a17.408,17.408,0,0,0,4.8-4.131c-.059,1.112-.44,2.092.473,2.65.929.568,1.812.036,2.615-.428.884-.511,1.71-1.123,2.577-1.665.275-.172.562-.582.929-.066.868,1.219,1.961.761,3.01.339.473-.191,1.258-.34.954-1.072" transform="translate(46.823 30.588)"/></g></g></g></g></svg>