<svg xmlns="https://www.w3.org/2000/svg" xmlns:xlink="https://www.w3.org/1999/xlink" width="626.362" height="383.439" viewBox="0 0 626.362 383.439"><defs><style>.a{fill:url(#a);}.b{fill:url(#b);}.c{fill:url(#c);}.d{fill:url(#d);}.e{opacity:0.25;}.e,.k{mix-blend-mode:overlay;isolation:isolate;}.f{fill:#720707;}.g{fill:#f49595;}.h{fill:#ef3535;}.i{fill:#ffaeae;}.j{fill:#ff7b7b;}.k{fill:none;stroke:#fff;stroke-linecap:round;stroke-linejoin:round;stroke-width:1.219px;opacity:0.45;}</style><linearGradient id="a" x1="0.484" y1="-0.003" x2="0.568" y2="1.753" gradientUnits="objectBoundingBox"><stop offset="0" stop-color="#ffe9e9"/><stop offset="1" stop-color="#fcc8c8"/></linearGradient><linearGradient id="b" x1="0.298" y1="-0.919" x2="0.597" y2="1.154" xlink:href="#a"/><linearGradient id="c" x1="0.34" y1="-0.92" x2="0.592" y2="1.157" xlink:href="#a"/><linearGradient id="d" x1="0.377" y1="-1.118" x2="1.077" y2="8.341" xlink:href="#a"/></defs><g transform="translate(-65.177 -67.158)"><path class="a" d="M463.242,415.418q-3.32.293-6.725.469-2.388.129-4.811.2-2.589.082-5.213.092-.962.009-1.921,0c-.293.006-.579,0-.872,0l-1.847-.018q-5.37-.064-10.463-.275c-105.405-4.134-125.282-49.858-196.645-72.235C166.717,322.318,72.928,183.482,119.6,106.345a81.966,81.966,0,0,1,15.865-18.963c71.729-63.711,169.53,42.962,204.559,48.571S490.406,55.621,571.2,98.589c24.389,12.969,40.755,47.2,46.175,88.631C629.339,278.423,588.3,404.51,463.242,415.418Z"/><path class="b" d="M338.155,424.631c-20.548,19.926-38.3-10.9-30.511-20.859S348.216,414.875,338.155,424.631Z"/><path class="c" d="M340.93,445.752a12.346,12.346,0,0,1-1.573,2.317c-5.086,5.8-12.506.427-13.829-4.262a4.245,4.245,0,0,1,0-2.628C327.424,436.021,343.8,440.374,340.93,445.752Z"/><path class="d" d="M336.148,77c25.116-3.943,37.985,33.627,13.492,34.249s-34.249-12.039-31.965-22.21S336.148,77,336.148,77Z"/><path class="e" d="M463.242,415.418q-3.32.293-6.725.469-2.388.129-4.811.2-2.589.082-5.213.092-.962.009-1.921,0c-.293.006-.579,0-.872,0l-1.847-.018q-5.37-.064-10.463-.275c-105.405-4.134-125.282-49.858-196.645-72.235C166.717,322.318,72.928,183.482,119.6,106.345c-3.786,23.188-9.445,90.222,37.767,146.226C215.484,321.519,353.1,365.627,376.142,366.3s-23.365-34.706,77.985-62.168,52.156,25.59,64.613,45.772,65.711-39.888,74.576-109.178c3.274-25.579,12.042-43.682,24.06-53.51C629.339,278.423,588.3,404.51,463.242,415.418Z"/><path class="f" d="M209.545,368.328c-1.348,8.652-4.585,22.53-7.439,33.078-1.78,6.579-3.408,11.859-4.347,13.78-.226.457-.409.726-.543.775-1.415.493-1.768.17-2.152-1.513h-.006c-.1-.439-.208-.975-.336-1.615-.1-.513-.219-1.1-.36-1.75-.914-4.244-1.719-28.908-1.823-32.389-.012-.269-.018-.409-.018-.409s-6.451-3.975-11.146-7.652a25.956,25.956,0,0,1-4.085-3.762,7.685,7.685,0,0,1-1.165-2.445c-1.8-5.872-1.128-17.56,2.409-18.621,0,0,22.072,3.329,31.34,14.53C210.423,360.993,210.215,364.011,209.545,368.328Z"/><path class="e" d="M209.545,368.328c-1.348,8.652-4.585,22.53-7.439,33.078-.073-4.969-.488-13.408-2.4-17.1-1.323-2.555-4.348-4.384-7.165-5.609-.012-.269-.018-.409-.018-.409s-6.451-3.975-11.146-7.652l-5.25-6.207c-1.8-5.872-1.128-17.56,2.409-18.621,0,0,22.072,3.329,31.34,14.53C210.423,360.993,210.215,364.011,209.545,368.328Z"/><path class="f" d="M215.416,393.778c-.384,1.116-.81,1.7-1.286,1.531a3.574,3.574,0,0,1-1.445-1.6h-.006c-3.488-5.853-8.512-25.383-8.512-25.383s-15.048,7.786-25.219,6.122c-7.4-1.207-10.566-9.006-11.749-13.17a5.275,5.275,0,0,0,.646-.061c2.3-.366,7.793-6.628,11.122-11.2,21.657-.848,37.157,3.634,38.382,7.414C218.416,360.719,217.727,387.065,215.416,393.778Z"/><path class="f" d="M157.622,305.984s-.447-6.184-4.942-6.407c-5.519-2.848-11.749.8-13.351,6.631s7.966,17.223,8.634,22.608-1.914,12.017-3.917,17.446,1.78,12.461,9.658,12.461,10.013-12.238,8.411-17.134-5.875-19.4-5.875-19.4Z"/><path class="g" d="M163.1,306.883l6.928-11.208s1.3-17.531,1.868-20.965c.647-3.894-.389-7.68,1.245-9.7,0,0,2.18,22.833,2.336,23.793a20.269,20.269,0,0,1,0,8.043c-.857,3.581-7.006,18.837-7.006,18.837S164.342,308.44,163.1,306.883Z"/><path class="h" d="M181.7,345.415c0,.56-1.116,2.384-2.731,4.6-3.329,4.573-8.817,10.835-11.122,11.2a5.275,5.275,0,0,1-.646.061c-2.768.054-3.409-2.8-4.037-6.659-.024-.134-.042-.268-.067-.408-.7-4.36-7.158-16.731-8.249-18.054a1.737,1.737,0,0,0-.622-.451h-.006c-1.415-.647-4.006-.36-5.134-4.067-1.037-3.421.658-8.287,2.225-11.719.433-.946.848-1.775,1.2-2.446a31.08,31.08,0,0,1,4.421-5.31c2.939-3.031,6.164-5.976,6.164-5.976s4.933,6.848,6.4,12.219,3.8,14.012,5.982,17.512S181.7,343.7,181.7,345.415Z"/><path class="e" d="M157.3,319.495a7.21,7.21,0,0,1-5.988.421c.433-.946.848-1.775,1.2-2.446a31.08,31.08,0,0,1,4.421-5.31,3.236,3.236,0,0,1,.4.122C161.888,313.94,161.23,317.507,157.3,319.495Z"/><path class="i" d="M189.483,288.9s-7.316,4.436-8.1,5.6-2.958,17.514-4.359,19.226-7.394,10.664-9.807,13.077c-2.491-2.18-3.814-9.419-3.269-10.353s6.771-5.371,6.771-5.371,5.76-17.046,7.551-19.07,2.413-2.88,3.113-3.113S189.483,288.9,189.483,288.9Z"/><path class="g" d="M151.457,314.221s1.774,2.894,2.521,3.174,3.874-.607,3.967-1.587-2.007-3.874-2.007-4.154Z"/><path class="i" d="M157.315,314.062a1.679,1.679,0,0,1-.536.372,11.711,11.711,0,0,1-4.793.61,16.439,16.439,0,0,1-1.793-.183c-1.432-.22-2.554-.616-2.8-1.1-.6-1.219,4.573-5.371,6.347-11.768a9.9,9.9,0,0,1,3.622,4.579C158.6,309.556,158.571,312.818,157.315,314.062Z"/><path class="h" d="M204.374,430.387c0,1.347-12.036-4.982-11.853-6.433s2.537-9.506,2.537-9.506h.006c.384,1.683.737,2.006,2.152,1.513.134-.049.317-.318.543-.775C197.759,415.186,204.374,429.039,204.374,430.387Z"/><path class="h" d="M221.916,411.394c-1.244.725-9.548-6.744-10.066-7.994s.829-9.7.829-9.7h.006a3.574,3.574,0,0,0,1.445,1.6c.476.165.9-.415,1.286-1.531C216.941,397.156,223.008,410.759,221.916,411.394Z"/><path class="e" d="M165.9,340.86c.256,3.737-1.457,10.755-2.738,13.755-.024-.134-.042-.268-.067-.408-.7-4.36-7.158-16.731-8.249-18.054a1.737,1.737,0,0,0-.622-.451c5.286.323,13-8.89,13-8.89C170.1,330.543,165.51,335.14,165.9,340.86Z"/><path class="e" d="M157.364,306.568s-1.4-1.445-2.659-2.524c-.317,3.39-5.719,8.091-4.512,10.817-1.432-.22-2.554-.616-2.8-1.1-.6-1.219,4.573-5.371,6.347-11.768A9.9,9.9,0,0,1,157.364,306.568Z"/><path class="j" d="M280.468,259.03h14.421a1.3,1.3,0,0,1,1.3,1.3v27.31a1.305,1.305,0,0,1-1.3,1.305H280.468a1.305,1.305,0,0,0-1.3,1.3V323.2a1.305,1.305,0,0,1-1.3,1.305H241.687a1.305,1.305,0,0,1-1.3-1.305v-32.95a1.305,1.305,0,0,0-1.305-1.3h-62.3a1.3,1.3,0,0,1-1.3-1.179l-2.144-22.087a1.3,1.3,0,0,1,.19-.815L240.382,157.3v-.345h37.476a1.3,1.3,0,0,1,1.3,1.305v99.466A1.306,1.306,0,0,0,280.468,259.03Zm-67.968,0h26.577a1.306,1.306,0,0,0,1.305-1.3V212.07a1.306,1.306,0,0,0-2.416-.686v0l-26.593,45.681A1.305,1.305,0,0,0,212.5,259.03Z"/><path class="j" d="M429.572,256.037q0,33.95-15.248,52.362t-42.982,18.413q-27.965,0-43.271-18.529t-15.305-52.246V225.426q0-33.945,15.248-52.36t43.1-18.413q27.849,0,43.155,18.528t15.306,52.361ZM390.79,220.478q0-18.064-4.718-26.986t-14.961-8.919q-10.011,0-14.558,8.286t-4.89,25.087v42.81q0,18.759,4.718,27.446t14.961,8.689q9.9,0,14.614-8.458t4.834-26.527Z"/><path class="j" d="M553.436,259.03h14.421a1.3,1.3,0,0,1,1.3,1.3v27.31a1.305,1.305,0,0,1-1.3,1.305H553.436a1.3,1.3,0,0,0-1.3,1.3V323.2a1.305,1.305,0,0,1-1.3,1.305H514.654a1.305,1.305,0,0,1-1.3-1.305v-32.95a1.305,1.305,0,0,0-1.3-1.3h-62.3a1.3,1.3,0,0,1-1.3-1.179L446.3,265.684a1.3,1.3,0,0,1,.19-.815L513.349,157.3v-.345h37.477a1.3,1.3,0,0,1,1.3,1.305v99.466A1.305,1.305,0,0,0,553.436,259.03Zm-67.968,0h26.576a1.306,1.306,0,0,0,1.3-1.3V212.073a1.305,1.305,0,0,0-2.416-.686h0L484.34,257.068A1.305,1.305,0,0,0,485.468,259.03Z"/><path class="h" d="M541.9,420.577s-4.157,1.759-6.677,7.945-2.9,14.968-1.757,16.114,9.547-7.943,10.31-13.289a27.92,27.92,0,0,0-.238-9.509Z"/><path class="i" d="M583.58,291.86c-3.116,2.567-4.28,7.085-4.28,7.085s-7.4-4.829-8.018-5.762-2.574-18.134-3.116-22.414,1.012-8.176,2.335-6.774.854,6.536.781,6.847,4.512,15.414,5.054,15.957S583.58,291.86,583.58,291.86Z"/><path class="h" d="M633.73,316.072a2.4,2.4,0,0,1-.128.36c-13.31,3.969-16.243,3.994-16.243,3.994s-.909,1.683-2.177,4.115c-1.738,3.336-4.164,8.085-5.878,11.86a25.729,25.729,0,0,0-2.06,5.512c-.11,1-1.208,1.621-2.824,1.884-3.938.634-10.975-.891-14.615-4.531-3.414-3.414-4.658-6.377-4.933-8.664a7.824,7.824,0,0,1,.183-2.939,14.115,14.115,0,0,1,1.6-2.89,26.629,26.629,0,0,0,3.969-12.109c.122-1.244.189-2.6.189-4.067-11.286-7.707-11.517-9.652-11.517-9.652s1.164-4.518,4.28-7.085c0,0,14.011,9.81,15.335,10.274.39.14,1.64.567,3.268,1.128,2.591.89,6.146,2.109,8.737,3.024,1.311.463,2.366.847,2.939,1.067,2.409.933,18.292.073,19.066,0h.013C633.675,307.353,634.444,313.639,633.73,316.072Z"/><path class="e" d="M610.92,306.286c-.945,1.969-2.664,4.183-5.469,3.36-3.543-1.037-3.524-4.6-3.268-6.384C604.774,304.152,608.329,305.371,610.92,306.286Z"/><path class="i" d="M665.668,287.524c-2.177,5.092-10.689,10.592-10.689,10.592s-10.066,13.28-12.45,15.048c-1.378,1.018-5.537,2.14-8.8,2.908.714-2.433-.055-8.719-.792-8.719.317-.043,6.4-.848,7.512-1.354,1.146-.518,10.066-9.03,10.273-9.341s2.8-7.987,3.323-8.3,1.244,2.9,1.244,2.9S662.247,287.634,665.668,287.524Z"/><path class="i" d="M612.835,296.939a3.43,3.43,0,0,1-.445,1.6,15.978,15.978,0,0,1-1.256,1.866l-.007.006a11.8,11.8,0,0,1-2.213,2.159c-2.2,1.622-4.25,1.792-4.847,1.384-.122-.086-.238-.171-.354-.262-2.78-2.189-2.908-6.214-2.7-8.61.031-.384.073-.719.116-1.006.091-.591.171-.951.171-.951,1.469,1.585,7.475-.409,8.981-.146C611.463,293.177,612.884,295.03,612.835,296.939Z"/><path class="g" d="M608.916,302.57c-.271,1.9.289,4.022-1.154,4.968a2.81,2.81,0,0,1-3.877-.64c-.445-.543-.312-2.141-.168-3.208.116.092.231.179.352.259C604.664,304.359,606.718,304.192,608.916,302.57Z"/><path class="f" d="M615.873,296.88c-.825,1.622-3.011,2.556-4.737,3.52a14.92,14.92,0,0,0,1.252-1.864c1.327-2.319-.588-5.3-2.1-5.562s-7.512,1.731-8.984.15c0,0-.081.358-.173.946-2.568-.819-7.582-3.006-7.8-7.6-.294-6.191,3.929-8.009,8.892-6.63s6.97,6.63,6.97,6.63,4.91-2.8,8.153.144-1.668,6.78-1.668,6.78S617.2,294.278,615.873,296.88Z"/><path class="f" d="M604.42,343.8a91.638,91.638,0,0,1-5.743,11.658c-4.4,7.573-44.883,61.93-54.846,69.9a1.125,1.125,0,0,1-.725.238c-1.378-.024-3.244-2-3.274-2.366-.311-3.707,38.852-71.533,39.461-72.588l.007-.012-26.548,6.127s-9.165,17.536-15.451,25.823c-.561.731-1.091,1.39-1.591,1.957-1.464,1.658-2.665,2.549-3.4,2.213-.128-.061-.146-.506-.073-1.274.7-7.1,9.5-41.456,12.731-46.23,2.732-4.03,26.188-6.457,36.493-8.036,1.415-.214,2.585-.415,3.414-.6.275,2.287,1.519,5.25,4.933,8.664C593.445,342.906,600.482,344.431,604.42,343.8Z"/><path class="h" d="M538.429,391.673c-1.658,2.335-18.572,11.261-17.121,6.176S532.192,385.5,532.192,385.5l.042-.03c-.073.768-.055,1.213.073,1.274.738.336,1.939-.555,3.4-2.213C536.545,387.021,539.856,389.667,538.429,391.673Z"/><path class="e" d="M604.42,343.8a91.638,91.638,0,0,1-5.743,11.658c-4.4,7.573-44.883,61.93-54.846,69.9a1.125,1.125,0,0,1-.725.238c11.262-18.548,48.986-73.04,45.144-81.655a98.986,98.986,0,0,0-6.792-12.731c1.415-.214,2.585-.415,3.414-.6.275,2.287,1.519,5.25,4.933,8.664C593.445,342.906,600.482,344.431,604.42,343.8Z"/><path class="e" d="M579.3,350.626l-26.548,6.127s-9.165,17.536-15.451,25.823c4.39-10.274,11.86-27.518,13.274-29.146,2.024-2.335,23.194-11.517,25.688-9.493S579.3,350.626,579.3,350.626Z"/><path class="f" d="M615.182,324.541c-1.738,3.336-4.164,8.085-5.878,11.86a27.9,27.9,0,0,1-22.645-11.628,26.629,26.629,0,0,0,3.969-12.109C594.89,316.554,604,323.56,615.182,324.541Z"/><path class="e" d="M612.835,296.939a3.422,3.422,0,0,0-1.134-2.171c-1.811-1.378-6.275.909-9.287.543-.548-.067-1.012-.147-1.4-.232.031-.384.073-.719.116-1.006.091-.591.171-.951.171-.951,1.469,1.585,7.475-.409,8.981-.146C611.463,293.177,612.884,295.03,612.835,296.939Z"/><path class="f" d="M119.734,213.49s50.2-38-26.84-83.337C78.71,159.742,115.695,188.215,119.734,213.49Z"/><path class="k" d="M92.894,130.153s3.408,14.972,17.746,31.025,22.2,26.334,9.094,52.312"/><path class="k" d="M91.305,155.184l15.674,1.632,5.924-12.871"/><path class="k" d="M100.246,174.764l19.241-2.942,4.727-16.864"/><path class="k" d="M109.285,189.622l17.031-1.207,6.892-18.969"/><path class="h" d="M137.975,252.57s36.1-67.425-71.943-78.323C65.41,214.1,120.681,226.733,137.975,252.57Z"/><path class="k" d="M66.032,174.247s11.365,14.789,35.339,25.22,37.869,17.782,36.6,53.1"/><path class="k" d="M76.993,202.673l18.123-6.16V179.3"/><path class="k" d="M96.8,219.737l19.736-13.019-3.349-21.008"/><path class="k" d="M114.322,231.54l18.179-9.982-2.03-24.431"/><path class="h" d="M477.156,373.413a112.372,112.372,0,0,1-3.957,18.548,120.009,120.009,0,0,1-5.762,15.219c-1.494,3.25-2.945,6.018-4.2,8.238q-3.32.293-6.725.469-2.388.129-4.811.2-2.589.082-5.213.092-.962.009-1.921,0c-.293.006-.579,0-.872,0l-1.847-.018a4.936,4.936,0,0,1-.177-.7s.079-1.67.518-4.609a96.77,96.77,0,0,1,2.463-11.457c.384-1.372.811-2.811,1.293-4.311.409-1.28.866-2.609,1.36-3.975.957-2.641,2.079-5.421,3.4-8.311a118.053,118.053,0,0,1,9.121-16.487,123,123,0,0,1,17.1-20.5A102.426,102.426,0,0,1,477.156,373.413Z"/><path class="k" d="M451.706,416.082c.6-2.1,1.408-4.676,2.372-7.6.061-.177.116-.36.177-.536,1.353-4.092,2.993-8.817,4.762-13.8,1.963-5.53,4.085-11.371,6.158-17.017,6.085-16.53,11.749-31.328,11.749-31.328"/><path class="k" d="M459.826,366.3l5.349,10.829,11.982-3.717"/><path class="k" d="M450.549,382.576l8.467,11.573,14.184-2.187"/><path class="k" d="M444.658,399.391l9.421,9.1,13.357-1.309"/><path class="f" d="M456.517,415.887q-2.388.129-4.811.2-2.589.082-5.213.092-.962.009-1.921,0c-.293.006-.579,0-.872,0l-1.847-.018q-5.37-.064-10.463-.275a113.788,113.788,0,0,1-6.122-14.822,117.3,117.3,0,0,1-4.512-18.28,121.929,121.929,0,0,1-1.421-26.664A102.453,102.453,0,0,1,438.286,376.2a111.4,111.4,0,0,1,9.024,14.9c.237.463.469.933.689,1.39a118.271,118.271,0,0,1,6.128,15.072l.128.385c.054.17.109.341.164.506C455.309,411.241,456,413.747,456.517,415.887Z"/><path class="k" d="M444.572,416.174c-.756-1.677-1.555-3.463-2.378-5.329-1.006-2.268-2.043-4.652-3.1-7.11-2.324-5.39-4.744-11.115-7.055-16.664-6.792-16.255-12.7-30.956-12.7-30.956"/><path class="k" d="M420.747,382.772l11.287,4.3,6.255-10.874"/><path class="k" d="M425.015,401.011l14.078,2.725,8.91-11.25"/><path class="k" d="M454.127,407.564l-.463.524-7.171,8.085"/><path class="j" d="M595.02,126.61A28.478,28.478,0,0,1,621.8,109.175c20.394,0,26,23.195,26,23.195s1.4-5.6,12.766-5.76,14.789,13.077,14.789,13.077,10.741-5.449,16.19,11.52H566.22S571.824,124.275,595.02,126.61Z"/><path class="j" d="M185.317,84.594A28.479,28.479,0,0,0,158.54,67.158c-20.393,0-26,23.2-26,23.2s-1.4-5.6-12.765-5.76-14.789,13.077-14.789,13.077S94.246,92.222,88.8,109.191h125.32S208.512,82.259,185.317,84.594Z"/></g></svg>